<svg width="128" height="128" viewBox="0 0 128 128" xmlns="http://www.w3.org/2000/svg">
    <!-- Calendar base with gradient -->
    <defs>
        <linearGradient id="calGradient" x1="0%" y1="0%" x2="0%" y2="100%">
            <stop offset="0%" style="stop-color:#4F46E5;stop-opacity:1" />
            <stop offset="100%" style="stop-color:#6366F1;stop-opacity:1" />
        </linearGradient>
        <linearGradient id="headerGradient" x1="0%" y1="0%" x2="0%" y2="100%">
            <stop offset="0%" style="stop-color:#DC2626;stop-opacity:1" />
            <stop offset="100%" style="stop-color:#EF4444;stop-opacity:1" />
        </linearGradient>
    </defs>

    <!-- Shadow -->
    <ellipse cx="64" cy="120" rx="40" ry="6" fill="#000000" opacity="0.2" />

    <!-- Calendar body -->
    <rect x="16" y="24" width="96" height="88" rx="8" ry="8" fill="url(#calGradient)" />

    <!-- Calendar header -->
    <rect x="16" y="24" width="96" height="24" rx="8" ry="8" fill="url(#headerGradient)" />
    <rect x="16" y="36" width="96" height="12" fill="url(#headerGradient)" />

    <!-- Calendar rings -->
    <rect x="32" y="14" width="8" height="20" rx="4" ry="4" fill="#FFFFFF" />
    <rect x="88" y="14" width="8" height="20" rx="4" ry="4" fill="#FFFFFF" />

    <!-- Ring holes -->
    <circle cx="36" cy="20" r="3" fill="#4F46E5" />
    <circle cx="92" cy="20" r="3" fill="#4F46E5" />

    <!-- Calendar grid lines (vertical) -->
    <line x1="40" y1="56" x2="40" y2="104" stroke="#FFFFFF" stroke-width="1" opacity="0.3" />
    <line x1="64" y1="56" x2="64" y2="104" stroke="#FFFFFF" stroke-width="1" opacity="0.3" />
    <line x1="88" y1="56" x2="88" y2="104" stroke="#FFFFFF" stroke-width="1" opacity="0.3" />

    <!-- Calendar grid lines (horizontal) -->
    <line x1="24" y1="72" x2="104" y2="72" stroke="#FFFFFF" stroke-width="1" opacity="0.3" />
    <line x1="24" y1="88" x2="104" y2="88" stroke="#FFFFFF" stroke-width="1" opacity="0.3" />

    <!-- Schedule dots/events -->
    <circle cx="32" cy="64" r="3" fill="#10B981" />
    <circle cx="52" cy="64" r="3" fill="#F59E0B" />
    <circle cx="76" cy="80" r="3" fill="#10B981" />
    <circle cx="96" cy="80" r="3" fill="#EC4899" />
    <circle cx="32" cy="96" r="3" fill="#F59E0B" />

    <!-- Check mark or planning indicator -->
    <path d="M 70 90 L 78 98 L 94 82" stroke="#FFFFFF" stroke-width="3" stroke-linecap="round" stroke-linejoin="round"
        fill="none" />
</svg>